<svg xmlns="http://www.w3.org/2000/svg" width="36" height="23" viewBox="0 0 36 23">
  <g id="Vector_Smart_Object" data-name="Vector Smart Object" transform="translate(-0.479 0.352)">
    <path id="Path_32" data-name="Path 32" d="M33.479-.352h-31c-1.628,0-2,1.372-2,3v17c0,1.628.468,3,2,3h31a3.037,3.037,0,0,0,3-3v-17A3.1,3.1,0,0,0,33.479-.352Z" opacity="0.07" style="mix-blend-mode: normal;isolation: isolate"/>
    <path id="Path_33" data-name="Path 33" d="M33.521.69a2.069,2.069,0,0,1,2,2v17a2.069,2.069,0,0,1-2,2h-31a2.069,2.069,0,0,1-2-2v-17a2.069,2.069,0,0,1,2-2h31" transform="translate(-0.042 -0.042)" fill="#fff"/>
    <path id="Path_34" data-name="Path 34" d="M27.69,9.986h-1a13.664,13.664,0,0,0-1,3h2C27.4,11.55,27.977,10.753,27.69,9.986Zm2,6h-1c-.1,0,.1.1,0,0l-1-1h-2c-.1,0,0-.192,0,0v1c0,.1-1,0-1,0h-2l1-1,2-6a1.111,1.111,0,0,1,1-1h2c.1,0,0-.192,0,0l1,6a3.5,3.5,0,0,1,0,1C29.785,15.082,29.69,15.891,29.69,15.986Zm-12-1v-1h0a3.552,3.552,0,0,0,2,0,3.5,3.5,0,0,0,1,0c.479-.192.383-.617,0-1a9.843,9.843,0,0,0-1-1c-.383-.192-.713.287-1,0a1.984,1.984,0,0,1,0-3,3.971,3.971,0,0,1,2-1,15.375,15.375,0,0,1,3,0h0a19.467,19.467,0,0,1-1,2c-.479-.192-.521-1-1-1-.287,0-.713.9-1,1-.192,0,.1-.1,0,0-.192.192-.192-.192,0,0v1c.383.192.713-.192,1,0a3.623,3.623,0,0,1,1,2c.192.862-.234,1.425-1,2-.479.383-.33,0-1,0-1.341,0-2.138.287-3,0C17.594,15.178,17.785,15.082,17.69,14.986Zm-4,1c.1-.67-.1-.713,0-1,.479-2.107,1.617-4.893,2-7,.1-.192-.192,0,0,0h2a27.53,27.53,0,0,1-1,3c-.287,1.437-.617,2.563-1,4,0,.192.192,1,0,1m-11-8c0-.1.9,0,1,0h3c.479,0,.9.521,1,1l1,4c0,.1-.1-.1,0,0h0l2-5c-.1-.1-.1,0,0,0h2c0,.1.1-.1,0,0l-3,7c-.1.192.1.9,0,1s-.808,0-1,0h-1c-.1,0,0-.808,0-1l-2-6c-.192-.192-.617.1-1,0a18.987,18.987,0,0,0-2-1Z" transform="translate(-0.211 -0.338)" fill="#142688"/>
  </g>
</svg>
