<svg xmlns="http://www.w3.org/2000/svg" width="36" height="23" viewBox="0 0 36 23">
  <g id="Vector_Smart_Object" data-name="Vector Smart Object" transform="translate(-0.452 0.352)">
    <path id="Path_29" data-name="Path 29" d="M33.452-.352h-31c-1.628,0-2,1.372-2,3v17c0,1.628.468,3,2,3h31a3.037,3.037,0,0,0,3-3v-17A3.1,3.1,0,0,0,33.452-.352Z" opacity="0.07" style="mix-blend-mode: normal;isolation: isolate"/>
    <path id="Path_30" data-name="Path 30" d="M33.494.69a2.069,2.069,0,0,1,2,2v17a2.069,2.069,0,0,1-2,2h-31c-1.054,0-1-.946-1-2v-17c0-1.054-.054-2,1-2h31" transform="translate(-0.042 -0.042)" fill="#fff"/>
    <ellipse id="Ellipse_7" data-name="Ellipse 7" cx="6.5" cy="7" rx="6.5" ry="7" transform="translate(7.452 4.648)" fill="#eb001b"/>
    <circle id="Ellipse_8" data-name="Ellipse 8" cx="7" cy="7" r="7" transform="translate(14.452 4.648)" fill="#00a2e5"/>
    <path id="Path_31" data-name="Path 31" d="M22.127,11.914a7.676,7.676,0,0,0-3-6,7.982,7.982,0,0,0-3,6,5.988,5.988,0,0,0,3,5A5.863,5.863,0,0,0,22.127,11.914Z" transform="translate(-0.676 -0.266)" fill="#7375cf"/>
  </g>
</svg>
