<svg xmlns="http://www.w3.org/2000/svg" width="36" height="23" viewBox="0 0 36 23">
  <g id="Vector_Smart_Object" data-name="Vector Smart Object" transform="translate(-0.399 0.352)">
    <path id="Path_26" data-name="Path 26" d="M33.4-.352H2.4c-1.628,0-2,1.372-2,3v17c0,1.628.468,3,2,3h31a3.037,3.037,0,0,0,3-3v-17A3.1,3.1,0,0,0,33.4-.352Z" opacity="0.07" style="mix-blend-mode: normal;isolation: isolate"/>
    <path id="Path_27" data-name="Path 27" d="M33.441.69a2.069,2.069,0,0,1,2,2v17a2.069,2.069,0,0,1-2,2h-31c-1.054,0-1-.946-1-2v-17c0-1.054-.054-2,1-2h31" transform="translate(-0.042 -0.042)" fill="#fff"/>
    <ellipse id="Ellipse_5" data-name="Ellipse 5" cx="6.5" cy="7" rx="6.5" ry="7" transform="translate(8.399 4.648)" fill="#eb001b"/>
    <circle id="Ellipse_6" data-name="Ellipse 6" cx="7" cy="7" r="7" transform="translate(15.399 4.648)" fill="#f79e1b"/>
    <path id="Path_28" data-name="Path 28" d="M22.074,11.914a7.676,7.676,0,0,0-3-6,7.982,7.982,0,0,0-3,6,5.988,5.988,0,0,0,3,5A5.863,5.863,0,0,0,22.074,11.914Z" transform="translate(-0.676 -0.266)" fill="#ff5f00"/>
  </g>
</svg>
